<svg id="Layer_1" enable-background="new 0 0 470.283 470.283" height="512" viewBox="0 0 470.283 470.283" width="512" xmlns="http://www.w3.org/2000/svg"><g><g><g><g><path d="m377.491 424.049h-284.699c-18.682 0-32.821-16.892-29.531-35.282l20.677-115.594c6.441-36.008 37.762-62.224 74.342-62.224h153.724c36.58 0 67.901 26.215 74.342 62.224l20.677 115.594c3.289 18.39-10.85 35.282-29.532 35.282z" fill="#eaeaea"/><path d="m81.261 407.766 20.677-115.594c6.441-36.008 37.762-62.224 74.342-62.224h153.724c16.733 0 32.356 5.498 45.01 14.898-13.636-20.622-36.987-33.898-63.01-33.898h-153.724c-36.58 0-67.901 26.215-74.342 62.224l-20.677 115.594c-2.629 14.696 5.876 28.424 18.93 33.352-1.422-4.468-1.824-9.353-.93-14.352z" fill="#fff"/></g><g><g><g><path d="m310.108 87.501h-149.933v79.941c0 41.403 33.564 74.966 74.966 74.966 41.403 0 74.966-33.564 74.966-74.966v-79.941z" fill="#ffc9b8"/><path d="m182.175 167.443v-79.942h-22v79.941c0 41.403 33.564 74.966 74.966 74.966 3.738 0 7.409-.283 11-.811-36.186-5.321-63.966-36.489-63.966-74.154z" fill="#ffe6dc"/></g><g><path d="m143.657 120.281v47.013l61.473 15.248 29.987-27.954 29.986 27.954 61.523-15.248v-47.013z" fill="#ef5264"/><g fill="#310e31"><path d="m174.863 140.6h18.907v14h-18.907z"/><path d="m276.513 140.6h18.907v14h-18.907z"/></g></g></g><g><path d="m235.142 7.046c-46.315 0-83.861 36.021-83.861 80.456h167.722c0-44.435-37.546-80.456-83.861-80.456z" fill="#676a75"/><path d="m246.142 7.757c-3.602-.453-7.269-.711-11-.711-46.315 0-83.861 36.021-83.861 80.456h22c0-40.855 31.748-74.574 72.861-79.745z" fill="#8d9096"/></g></g><g><g><path d="m354.253 463.238h-238.222l.487-159.432c.034-11.022 8.978-19.939 20-19.939h198.222c11.07 0 20.034 8.992 20 20.061z" fill="#8585ff"/><path d="m138.518 324.805c.034-11.022 8.978-19.939 20-19.939h196.219l.003-.939c.034-11.07-8.93-20.061-20-20.061h-198.222c-11.022 0-19.966 8.917-20 19.939l-.487 159.432h22.064z" fill="#b3b3ff"/></g><path d="m361.274 456.237.077-25.189h16.14c22.368.549 40.901-21.594 36.422-43.515l-20.677-115.593c-7.047-39.397-41.21-67.991-81.232-67.991h-3.534c4.139-8.287 6.933-17.358 8.053-26.938l11.788-2.922c3.123-.774 5.316-3.577 5.316-6.794v-47.013c0-3.866-3.134-7-7-7h-9.518v-18.78h19.683v-14h-11.08c-3.717-44.963-42.916-80.456-90.569-80.456s-86.852 35.493-90.569 80.456h-11.08v14h19.683v18.78h-9.518c-3.866 0-7 3.134-7 7v47.013c0 3.217 2.192 6.02 5.315 6.794l11.79 2.924c1.12 9.58 3.914 18.65 8.053 26.936h-3.534c-40.022 0-74.186 28.594-81.232 67.991l-20.68 115.594c-4.479 21.922 14.055 44.064 36.422 43.515h16.336l-.077 25.189h-99.99v14h452.16v-14h-99.948zm-126.132-442.191c39.911 0 72.814 29.223 76.515 66.456h-153.03c3.7-37.233 36.604-66.456 76.515-66.456zm67.966 80.455v18.78h-135.933v-18.78zm-152.451 67.317v-34.537h168.97v34.536l-52.525 13.018-27.211-25.367c-2.688-2.507-6.858-2.507-9.546 0l-27.211 25.366zm151.125 18.845c-6.171 31.166-33.69 54.746-66.641 54.746-32.949 0-60.466-23.577-66.64-54.74l34.943 8.667c2.297.571 4.728-.06 6.458-1.674l25.214-23.504 25.213 23.504c1.732 1.62 4.184 2.242 6.457 1.674zm-208.99 236.385c-13.905.342-25.425-13.424-22.641-27.05l20.677-115.594c5.852-32.713 34.219-56.456 67.451-56.456h12.375c15.009 19.139 38.33 31.46 64.487 31.46s49.477-12.321 64.487-31.46h12.375c33.232 0 61.6 23.743 67.451 56.456l20.677 115.594c2.785 13.627-8.737 27.391-22.641 27.05h-16.097l.346-113.1c.022-7.227-2.775-14.026-7.878-19.145s-11.894-7.938-19.121-7.938h-198.222c-14.842 0-26.955 12.075-27 26.917l-.346 113.265h-16.38zm30.726-113.221c.022-7.146 5.854-12.96 13-12.96h198.222c3.48 0 6.75 1.357 9.207 3.822 2.457 2.464 3.804 5.738 3.793 9.218l-.465 152.332h-224.223z" fill="#310e31"/><g><g><path d="m296.626 360.732c0-27.437-27.527-49.68-61.484-49.68s-61.484 22.242-61.484 49.68c0 12.917 6.103 24.682 16.105 33.517 4.575 4.041 7.087 9.931 7.087 16.036v15.767c0 5.523 4.477 10 10 10h56.586c5.523 0 10-4.477 10-10v-15.767c0-6.104 2.512-11.994 7.087-16.036 10-8.835 16.103-20.6 16.103-33.517z" fill="#ef5264"/><path d="m215.849 426.052v-15.767c0-6.104-2.512-11.994-7.087-16.036-10.002-8.835-16.105-20.599-16.105-33.517 0-24.827 22.539-45.397 51.984-49.088-3.097-.388-6.269-.592-9.5-.592-33.957 0-61.484 22.242-61.484 49.68 0 12.917 6.103 24.682 16.105 33.517 4.575 4.041 7.087 9.931 7.087 16.036v15.767c0 5.523 4.477 10 10 10h19c-5.523 0-10-4.477-10-10z" fill="#ff8395"/></g><g fill="#310e31"><path d="m235.142 304.052c-37.762 0-68.484 25.427-68.484 56.68 0 14.475 6.56 28.241 18.47 38.763 3 2.65 4.721 6.583 4.721 10.79v15.768c0 9.374 7.626 17 17 17h56.586c9.374 0 17-7.626 17-17v-15.768c0-4.207 1.721-8.139 4.721-10.79 11.911-10.521 18.47-24.288 18.47-38.763 0-31.253-30.722-56.68-68.484-56.68zm40.745 84.95c-6.007 5.306-9.453 13.063-9.453 21.282v15.768c0 1.654-1.346 3-3 3h-5.852v-8.651h-14v8.651h-16.882v-8.651h-14v8.651h-5.852c-1.654 0-3-1.346-3-3v-15.768c0-8.218-3.445-15.976-9.453-21.282-8.859-7.827-13.739-17.866-13.739-28.271 0-23.534 24.441-42.68 54.484-42.68s54.484 19.146 54.484 42.68c.002 10.405-4.877 20.445-13.737 28.271z"/><g><circle cx="209.94" cy="368.77" r="8"/><circle cx="260.343" cy="368.77" r="8"/></g><path d="m229.229 405.325-10.4-9.372 11.34-12.583c4.152-3.609 8.292-1.959 10.494.106l10.885 12.583-10.588 9.159-5.698-6.587z"/></g></g></g></g><g><g><circle cx="445.283" cy="78.87" fill="#ef5264" r="18"/><path d="m470.283 78.871c0-11.355-7.612-20.96-18-23.995v-35.92h-14v35.92c-10.388 3.036-18 12.64-18 23.995s7.612 20.96 18 23.995v26.182c0 13.64-11.097 24.737-24.737 24.737s-24.737-11.097-24.737-24.737v-17.427l7.922 9.989 10.969-8.7-20.407-25.729c-3.833-5.177-12.699-2.087-12.484 4.35v37.517c0 21.36 17.377 38.737 38.737 38.737s38.737-17.377 38.737-38.737v-26.182c10.388-3.035 18-12.64 18-23.995zm-25 11c-6.065 0-11-4.935-11-11s4.935-11 11-11 11 4.935 11 11-4.934 11-11 11z" fill="#310e31"/></g><g><g><path d="m7 28.955v42.75c0 5.523 4.477 10 10 10h55.91l31.238 22.047v-74.797c0-5.523-4.477-10-10-10h-77.148c-5.523 0-10 4.477-10 10z" fill="#57ceae"/><path d="m24 45.955c0-5.523 4.477-10 10-10h70.148v-7c0-5.523-4.477-10-10-10h-77.148c-5.523 0-10 4.477-10 10v42.75c0 5.523 4.477 10 10 10h7z" fill="#6df7ae"/><path d="m100.111 109.471-29.423-20.766h-53.688c-9.374 0-17-7.626-17-17v-42.75c0-9.374 7.626-17 17-17h77.148c9.374 0 17 7.626 17 17v74.797c.076 3.769-3.726 9.529-11.037 5.719zm-83.111-83.516c-1.654 0-3 1.346-3 3v42.75c0 1.654 1.346 3 3 3h55.91c1.445 0 2.855.447 4.037 1.281l20.201 14.258v-61.289c0-1.654-1.346-3-3-3z" fill="#310e31"/></g><g fill="#310e31"><circle cx="55.502" cy="50.365" r="6.5"/><circle cx="80.502" cy="50.365" r="6.5"/><circle cx="30.502" cy="50.365" r="6.5"/></g></g></g></g></g></svg>